<svg viewBox="0 0 1700 356" xmlns="http://www.w3.org/2000/svg" version="1.1" xml:space="preserve">
    <path d="m121.517,150.247l199.248,66.818c-18.45,55.02 -78.006,84.661 -133.037,66.208c-55.02,-18.45 -84.661,-78.007 -66.211,-133.026z" fill="#000" />
    <path d="m325.959,176.578l-184.179,-61.772c27.067,-31.174 71.199,-44.726 112.766,-30.782c41.578,13.948 68.627,51.361 71.413,92.554z" fill="#000" />
    <path d="m320.765,217.065l39.474,13.233c-25.766,76.816 -108.925,118.204 -185.744,92.449s-118.197,-108.91 -92.453,-185.733l39.474,13.233c-18.45,55.02 11.192,114.576 66.212,133.026c55.03,18.453 114.587,-11.189 133.037,-66.208z" fill="#48BB78" />
    <path d="m437.687,243.375c3.285,1.593 4.052,4.786 3.166,7.44c-0.976,2.921 -3.965,5.194 -7.786,3.906l-72.828,-24.422l-39.474,-13.233l-199.248,-66.818l-39.474,-13.233l0.004,-0.011l-72.829,-24.424c-7.28,-2.431 -4.382,-13.335 3.148,-11.837c17.643,3.501 35.537,2.463 52.211,-2.638c16.692,-5.083 32.16,-14.217 44.928,-26.881c41.167,-40.815 103.296,-57.453 162.002,-37.76c58.71,19.682 98.252,70.413 106.485,127.801c5.1,35.597 27.318,66.439 59.695,82.11zm-295.907,-128.569l184.179,61.772c-2.786,-41.193 -29.835,-78.606 -71.413,-92.554c-41.567,-13.944 -85.7,-0.392 -112.766,30.782z" fill="#22c35e" />
    <path d="m221.133,351.221c-17.736,0 -35.643,-2.824 -53.078,-8.646l-0.202,-0.068c-19.625,-6.579 -37.615,-16.571 -53.455,-29.692c-2.126,-1.762 -2.423,-4.914 -0.661,-7.04c1.761,-2.126 4.913,-2.423 7.04,-0.661c14.889,12.333 31.802,21.726 50.269,27.917l0.163,0.055c59.916,20.009 125.794,2.368 167.845,-44.939c1.835,-2.063 4.994,-2.25 7.06,-0.416c2.063,1.835 2.249,4.995 0.415,7.059c-32.476,36.536 -78.325,56.431 -125.396,56.431zm-121.776,-54.951c-1.387,0 -2.766,-0.573 -3.754,-1.696c-32.037,-36.38 -46.851,-84.661 -40.643,-132.461c0.355,-2.738 2.868,-4.667 5.603,-4.314c2.738,0.356 4.67,2.864 4.314,5.603c-5.837,44.944 8.097,90.346 38.23,124.565c1.825,2.072 1.625,5.231 -0.448,7.057c-0.949,0.835 -2.128,1.246 -3.302,1.246zm257.425,-18.007c-0.946,0 -1.903,-0.269 -2.752,-0.83c-2.304,-1.522 -2.937,-4.625 -1.414,-6.928c3.395,-5.135 6.518,-10.53 9.283,-16.035c1.24,-2.467 4.246,-3.463 6.712,-2.223c2.468,1.239 3.463,4.245 2.224,6.712c-2.942,5.857 -6.266,11.597 -9.877,17.061c-0.962,1.454 -2.553,2.243 -4.176,2.243zm68.866,-56.419c-1.135,0 -2.276,-0.384 -3.214,-1.172c-18.309,-15.385 -30.279,-37.03 -33.707,-60.949c-0.392,-2.734 1.507,-5.267 4.24,-5.659c2.739,-0.393 5.267,1.508 5.658,4.24c3.078,21.481 13.818,40.911 30.242,54.711c2.114,1.776 2.388,4.931 0.611,7.045c-0.988,1.178 -2.404,1.784 -3.83,1.784zm-37.544,-83.12c-2.151,0 -4.139,-1.4 -4.788,-3.567c-6.461,-21.571 -16.973,-41.354 -31.243,-58.8c-10.62,-12.984 -23.084,-24.28 -37.047,-33.572c-2.299,-1.53 -2.922,-4.634 -1.392,-6.933c1.529,-2.298 4.63,-2.923 6.933,-1.393c14.791,9.844 27.996,21.811 39.246,35.566c15.11,18.472 26.24,39.42 33.083,62.262c0.792,2.645 -0.71,5.432 -3.355,6.224c-0.479,0.145 -0.962,0.213 -1.437,0.213zm-328.166,-50.771c-2.143,0 -4.125,-1.389 -4.781,-3.545c-0.804,-2.642 0.685,-5.436 3.327,-6.24c6.772,-2.062 13.32,-4.971 19.46,-8.645c2.371,-1.418 5.44,-0.646 6.858,1.723s0.646,5.44 -1.723,6.858c-6.838,4.092 -14.133,7.332 -21.682,9.63c-0.486,0.148 -0.977,0.219 -1.459,0.219zm38.407,-22.98c-1.287,0 -2.573,-0.494 -3.551,-1.479c-1.944,-1.961 -1.931,-5.127 0.03,-7.071c23.237,-23.038 52.349,-39.3 84.188,-47.027c32.671,-7.93 66.869,-6.467 98.896,4.229l0.229,0.077c5.755,1.929 11.471,4.173 16.989,6.668c2.516,1.138 3.633,4.1 2.495,6.616c-1.137,2.516 -4.097,3.636 -6.616,2.496c-5.212,-2.356 -10.611,-4.476 -16.049,-6.299l-0.205,-0.068c-30.252,-10.104 -62.539,-11.486 -93.381,-4c-30.069,7.298 -57.562,22.655 -79.505,44.411c-0.975,0.964 -2.248,1.447 -3.52,1.447z" fill="#000" />
    <path d="m221.012,335.369c-15.955,0 -32.167,-2.537 -48.107,-7.881c-77.713,-26.056 -120.456,-109.332 -97.112,-187.309l-68.165,-22.858c-5.737,-1.917 -8.777,-7.558 -7.224,-13.413c1.555,-5.858 6.997,-9.251 12.937,-8.069c16.485,3.271 33.698,2.4 49.772,-2.516c16.059,-4.89 30.881,-13.759 42.87,-25.65c21.187,-21.005 47.731,-35.833 76.765,-42.879c29.848,-7.244 61.09,-5.886 90.348,3.93c29.26,9.809 55.005,27.561 74.451,51.335c18.917,23.128 31.155,50.963 35.393,80.496c4.896,34.158 26.176,63.437 56.925,78.32c5.193,2.518 7.549,8.078 5.731,13.523c-0.962,2.879 -3.017,5.278 -5.638,6.582c-2.58,1.284 -5.594,1.454 -8.489,0.478l-31.685,-10.625c-2.618,-0.878 -4.028,-3.712 -3.15,-6.331c0.879,-2.618 3.715,-4.026 6.33,-3.151l31.692,10.628c0.565,0.191 0.778,0.082 0.848,0.047c0.248,-0.123 0.485,-0.436 0.606,-0.796c0.305,-0.915 -0.243,-1.181 -0.606,-1.356c-33.743,-16.333 -57.096,-48.446 -62.463,-85.9c-3.979,-27.729 -15.471,-53.865 -33.234,-75.583c-18.252,-22.313 -42.419,-38.976 -69.89,-48.186c-27.471,-9.215 -56.797,-10.492 -84.81,-3.693c-27.264,6.617 -52.19,20.54 -72.083,40.262c-13.139,13.032 -29.389,22.754 -46.992,28.114c-17.642,5.396 -36.537,6.352 -54.641,2.76c-0.395,-0.079 -1.048,-0.208 -1.322,0.826c-0.273,1.029 0.356,1.239 0.732,1.364l72.833,24.424c2.566,0.861 3.981,3.607 3.193,6.197c-0.013,0.044 -0.031,0.1 -0.046,0.144c-24.828,74.09 15.232,154.571 89.301,179.404c74.082,24.84 154.566,-15.222 179.415,-89.299c0.879,-2.618 3.715,-4.027 6.33,-3.15l12.159,4.078c2.618,0.878 4.028,3.712 3.15,6.331s-3.712,4.028 -6.33,3.151l-7.496,-2.514c-22.556,60.629 -80.459,98.763 -142.298,98.765z" fill="#000" />
    <path d="m221.249,293.783c-11.783,0 -23.612,-1.914 -35.111,-5.77c-27.876,-9.348 -50.443,-28.991 -63.543,-55.312c-13.1,-26.32 -15.167,-56.167 -5.819,-84.044c0.878,-2.618 3.713,-4.028 6.331,-3.151c2.618,0.878 4.029,3.712 3.151,6.331c-17.543,52.317 10.746,109.152 63.061,126.695c25.348,8.5 52.487,6.622 76.418,-5.287c23.931,-11.91 41.789,-32.426 50.288,-57.77c0.878,-2.618 3.713,-4.028 6.33,-3.151c2.618,0.878 4.028,3.712 3.15,6.331c-9.348,27.876 -28.991,50.443 -55.313,63.543c-15.466,7.696 -32.156,11.584 -48.943,11.585z" fill="#000" />
    <path d="m325.959,181.578c-0.534,0 -1.07,-0.085 -1.59,-0.26l-184.179,-61.771c-1.582,-0.531 -2.795,-1.816 -3.234,-3.426c-0.438,-1.61 -0.045,-3.333 1.049,-4.593c29.358,-33.813 75.729,-46.47 118.131,-32.245c26.968,9.047 49.112,27.885 62.354,53.045c1.286,2.443 0.348,5.467 -2.096,6.753c-2.443,1.286 -5.468,0.348 -6.754,-2.096c-12.038,-22.872 -32.169,-39.997 -56.685,-48.222c-36.142,-12.125 -75.445,-2.77 -102.211,23.775l169.424,56.823c-0.832,-5.743 -2.165,-11.418 -3.984,-16.949c-0.862,-2.623 0.564,-5.449 3.188,-6.312c2.622,-0.865 5.449,0.564 6.313,3.187c2.874,8.738 4.645,17.806 5.263,26.952c0.113,1.665 -0.612,3.276 -1.934,4.295c-0.887,0.687 -1.964,1.044 -3.055,1.044z" fill="#000" />
    <path d="m360.24,235.299c-0.527,0 -1.063,-0.084 -1.59,-0.261l-89.628,-30.052c-2.618,-0.878 -4.028,-3.712 -3.15,-6.331c0.879,-2.618 3.715,-4.027 6.33,-3.151l89.626,30.052c2.618,0.878 4.029,3.712 3.151,6.33c-0.7,2.092 -2.649,3.413 -4.739,3.413z" fill="#000" />
    <path d="m247.581,197.523c-0.527,0 -1.063,-0.084 -1.591,-0.261l-182.421,-61.171c-2.618,-0.878 -4.029,-3.712 -3.15,-6.33c0.878,-2.618 3.714,-4.029 6.33,-3.15l182.421,61.171c2.618,0.878 4.028,3.712 3.15,6.331c-0.702,2.09 -2.649,3.41 -4.739,3.41z" fill="#000" />
    <path d="m378.395,220.993c-0.53,0 -1.066,-0.085 -1.589,-0.26l-40.64,-13.629c-2.618,-0.878 -4.028,-3.712 -3.15,-6.33c0.879,-2.618 3.714,-4.029 6.33,-3.15l28.051,9.407c-4.979,-9.646 -8.755,-19.875 -11.269,-30.542c-0.633,-2.688 1.033,-5.38 3.721,-6.013c2.694,-0.634 5.381,1.033 6.014,3.72c3.289,13.962 8.914,27.105 16.721,39.065c1.163,1.783 1.07,4.106 -0.231,5.791c-0.966,1.246 -2.439,1.941 -3.958,1.941z" fill="#F0FFF4" />
    <path d="m357.476,161.053c-2.331,0 -4.417,-1.638 -4.896,-4.011c-4.667,-23.111 -15.303,-44.591 -30.758,-62.115c-15.504,-17.579 -35.577,-30.854 -58.051,-38.39l-0.153,-0.051c-32.522,-10.862 -67.433,-9.025 -98.313,5.17c-2.509,1.152 -5.478,0.054 -6.631,-2.455s-0.054,-5.478 2.455,-6.631c33.197,-15.26 70.717,-17.238 105.651,-5.571l0.159,0.053c24.151,8.099 45.719,22.366 62.384,41.261c16.614,18.839 28.046,41.92 33.061,66.75c0.546,2.707 -1.205,5.344 -3.912,5.891c-0.335,0.066 -0.669,0.099 -0.996,0.099z" fill="#F0FFF4" />
    <path d="m95.411,110.864c-1.75,0 -3.449,-0.92 -4.366,-2.556c-1.351,-2.409 -0.493,-5.456 1.916,-6.807c9.717,-5.448 18.678,-12.21 26.635,-20.097c7.122,-7.061 14.965,-13.388 23.311,-18.803c2.318,-1.502 5.414,-0.844 6.916,1.473c1.503,2.316 0.844,5.413 -1.473,6.916c-7.772,5.043 -15.078,10.937 -21.714,17.517c-8.597,8.521 -18.281,15.828 -28.785,21.718c-0.772,0.433 -1.612,0.639 -2.44,0.639z" fill="#F0FFF4" />
    <path d="m121.813,134.949c-0.527,0 -1.063,-0.084 -1.59,-0.261l-45.638,-15.304c-2.618,-0.878 -4.029,-3.712 -3.151,-6.331c0.878,-2.618 3.711,-4.028 6.331,-3.151l45.637,15.304c2.618,0.878 4.029,3.712 3.151,6.33c-0.7,2.092 -2.65,3.413 -4.74,3.413z" fill="#F0FFF4" />
    <path d="m151.148,144.786c-0.527,0 -1.063,-0.084 -1.59,-0.261l-13.038,-4.372c-2.618,-0.878 -4.029,-3.712 -3.151,-6.331c0.878,-2.618 3.712,-4.029 6.331,-3.151l13.038,4.372c2.618,0.878 4.029,3.712 3.151,6.331c-0.702,2.092 -2.651,3.412 -4.741,3.412z" fill="#F0FFF4" />
    <path d="m310.865,198.347c-0.527,0 -1.063,-0.084 -1.591,-0.261l-140.161,-47.002c-2.618,-0.878 -4.029,-3.712 -3.151,-6.331c0.878,-2.618 3.712,-4.029 6.331,-3.151l140.161,47.002c2.618,0.878 4.028,3.712 3.15,6.331c-0.701,2.091 -2.649,3.412 -4.739,3.412z" fill="#F0FFF4" />
    <path d="m128.165,271.286c-1.382,0 -2.757,-0.569 -3.745,-1.685c-24.657,-27.838 -36.235,-64.856 -31.764,-101.563c0.334,-2.741 2.829,-4.69 5.568,-4.359c2.741,0.334 4.693,2.827 4.359,5.568c-4.125,33.867 6.563,68.028 29.322,93.724c1.831,2.067 1.64,5.228 -0.427,7.058c-0.951,0.843 -2.136,1.257 -3.313,1.257z" fill="#F0FFF4" />
    <path d="m152.458,292.412c-0.948,0 -1.907,-0.269 -2.756,-0.832c-2.344,-1.552 -4.664,-3.201 -6.895,-4.9c-2.197,-1.673 -2.622,-4.81 -0.948,-7.007c1.673,-2.197 4.811,-2.622 7.007,-0.948c2.057,1.566 4.196,3.086 6.358,4.519c2.302,1.524 2.933,4.627 1.408,6.929c-0.962,1.452 -2.553,2.239 -4.174,2.239z" fill="#F0FFF4" />
    <path d="m221.139,313.083c-13.715,0 -27.542,-2.188 -40.987,-6.679l-0.14,-0.046c-3.696,-1.24 -7.355,-2.651 -10.894,-4.201c-2.529,-1.108 -3.682,-4.057 -2.574,-6.586c1.109,-2.529 4.058,-3.68 6.586,-2.574c3.267,1.432 6.646,2.735 10.043,3.875l0.143,0.047c42.026,14.033 88.136,3.697 120.339,-26.981c2.002,-1.905 5.165,-1.829 7.069,0.171c1.905,2 1.828,5.164 -0.171,7.069c-24.59,23.426 -56.673,35.905 -89.414,35.905z" fill="#F0FFF4" />
    <path d="m321.652,261.986c-1.023,0 -2.057,-0.313 -2.946,-0.964c-2.229,-1.629 -2.716,-4.757 -1.087,-6.987c2.818,-3.856 5.428,-7.923 7.757,-12.09c1.346,-2.41 4.39,-3.273 6.804,-1.925c2.41,1.347 3.272,4.394 1.925,6.804c-2.525,4.519 -5.355,8.931 -8.411,13.112c-0.98,1.339 -2.501,2.05 -4.042,2.05z" fill="#F0FFF4" />
    <path d="m386.637,244.211c-0.33,0 -0.65,-0.03 -0.98,-0.09c-0.32,-0.07 -0.63,-0.17 -0.93,-0.29c-0.301,-0.13 -0.59,-0.28 -0.87,-0.46c-0.271,-0.18 -0.521,-0.39 -0.76,-0.62c-0.931,-0.93 -1.46,-2.22 -1.46,-3.54c0,-0.32 0.029,-0.65 0.1,-0.97c0.06,-0.32 0.16,-0.64 0.28,-0.94c0.13,-0.3 0.279,-0.59 0.46,-0.86c0.18,-0.28 0.39,-0.53 0.62,-0.76c0.239,-0.23 0.489,-0.44 0.76,-0.62c0.28,-0.19 0.569,-0.34 0.87,-0.46c0.3,-0.13 0.609,-0.23 0.93,-0.29c0.65,-0.13 1.31,-0.13 1.96,0c0.32,0.06 0.63,0.16 0.93,0.29c0.301,0.12 0.591,0.27 0.87,0.46c0.271,0.18 0.53,0.39 0.76,0.62c0.23,0.23 0.44,0.48 0.62,0.76c0.181,0.27 0.33,0.56 0.46,0.86c0.12,0.3 0.221,0.62 0.28,0.94c0.07,0.32 0.101,0.65 0.101,0.97c0,1.32 -0.53,2.61 -1.461,3.54c-0.941,0.93 -2.231,1.46 -3.54,1.46z" fill="#000" />
    <path d="m386.259,223.62c-0.525,0 -1.06,-0.083 -1.585,-0.259l-7.862,-2.626c-2.619,-0.875 -4.033,-3.708 -3.158,-6.327c0.875,-2.62 3.71,-4.03 6.326,-3.159l7.862,2.626c2.619,0.875 4.033,3.708 3.158,6.327c-0.699,2.094 -2.649,3.418 -4.741,3.418z" fill="#F0FFF4" />
    <path d="m74.223,119.055c-0.525,0 -1.059,-0.083 -1.584,-0.259l-7.862,-2.626c-2.619,-0.875 -4.033,-3.708 -3.159,-6.327c0.876,-2.619 3.709,-4.031 6.327,-3.159l7.862,2.626c2.619,0.875 4.033,3.708 3.159,6.327c-0.701,2.094 -2.651,3.418 -4.743,3.418z" fill="#F0FFF4" />
    <text style="user-select: none;" letter-spacing="1" fill="#48BB78" x="508" y="231" font-size="16" font-family="Comfortaa, Arial" xml:space="preserve" transform="matrix(12.3827 0 0 12.3827 -5826.11 -2602.72)" font-weight="bold">CMSPACEY</text>
</svg>
